PathFileType	3	(X/Y/Z)	D:\Vicon Database\Healthy Subjects\S0040\Jan. 30, 2020\Force Plate Walk 9.trc
DataRate	CameraRate	NumFrames	NumMarkers	Units	OrigDataRate	OrigDataStartFrame	OrigNumFrames
100.0	100.0	6	53	mm	100.0	256	299	
Frame#	Time	right_foot_cluster2			right_foot_cluster3			sternum_cluster1			sternum_cluster2			sternum_cluster3			left_asis			right_asis			left_psis			right_psis			sacrum_cluster1			sacrum_cluster2			sacrum_cluster3			left_lat_femoral_epicondyle			left_anterior_thigh15			left_anterior_thigh25			left_anterior_thigh50			left_lateral_thigh25			left_lateral_thigh50			left_thigh_cluster1			left_thigh_cluster2			left_thigh_cluster3			left_fibular_head			left_tibial_tuberosity			left_anterior_shank30			left_lateral_malleolus			left_shank_cluster1			left_shank_cluster2			left_shank_cluster3			left_heel			left_metatarsal2			left_foot_cluster1			left_foot_cluster2			left_foot_cluster3			right_lat_femoral_epicondyle			right_anterior_thigh15			right_anterior_thigh25			right_anterior_thigh50			right_lateral_thigh25			right_lateral_thigh50			right_thigh_cluster1			right_thigh_cluster2			right_thigh_cluster3			right_fibular_head			right_tibial_tuberosity			right_lateral_distal_shank			right_anterior_shank30			right_lateral_malleolus			right_shank_cluster1			right_shank_cluster2			right_shank_cluster3			right_heel			right_metatarsal2			right_foot_cluster1			
		X1	Y1	Z1	X2	Y2	Z2	X3	Y3	Z3	X4	Y4	Z4	X5	Y5	Z5	X6	Y6	Z6	X7	Y7	Z7	X8	Y8	Z8	X9	Y9	Z9	X10	Y10	Z10	X11	Y11	Z11	X12	Y12	Z12	X13	Y13	Z13	X14	Y14	Z14	X15	Y15	Z15	X16	Y16	Z16	X17	Y17	Z17	X18	Y18	Z18	X19	Y19	Z19	X20	Y20	Z20	X21	Y21	Z21	X22	Y22	Z22	X23	Y23	Z23	X24	Y24	Z24	X25	Y25	Z25	X26	Y26	Z26	X27	Y27	Z27	X28	Y28	Z28	X29	Y29	Z29	X30	Y30	Z30	X31	Y31	Z31	X32	Y32	Z32	X33	Y33	Z33	X34	Y34	Z34	X35	Y35	Z35	X36	Y36	Z36	X37	Y37	Z37	X38	Y38	Z38	X39	Y39	Z39	X40	Y40	Z40	X41	Y41	Z41	X42	Y42	Z42	X43	Y43	Z43	X44	Y44	Z44	X45	Y45	Z45	X46	Y46	Z46	X47	Y47	Z47	X48	Y48	Z48	X49	Y49	Z49	X50	Y50	Z50	X51	Y51	Z51	X52	Y52	Z52	X53	Y53	Z53	
256	2.55	3725.3774	105.64314	-201.25932	3725.9438	109.54984	-238.89645	3631.4341	1453.5084	-162.20685	3621.6643	1424.8888	-153.6443	3621.4827	1428.225	-191.51357	3670.2424	1075.082	-47.135273	3663.3823	1081.2672	-294.39273																3589.5793	569.21637	-19.683952	3514.188	666.5412	-65.185913	3533.946	755.15594	-54.550549	3592.4771	880.80286	-45.022644	3637.4094	709.19458	2.3821301	3685.9893	850.2821	24.172926	3670.6118	806.11383	31.302717	3664.3389	776.96948	28.807831	3632.2021	797.07715	32.761543	3595.6912	498.92316	-10.529085	3540.3823	471.46936	-61.626537	3677.3315	253.74138	-69.313873	3773.5154	170.79683	-40.266293	3565.731	416.72528	-88.560966	3575.2878	391.13382	-78.774887	3585.3584	395.72531	-115.84075	3853.5798	167.03618	-83.604767	3651.2832	84.45018	-67.579048	3687.3062	150.61311	-63.222809	3673.1912	125.35056	-52.510979	3664.6047	129.32428	-89.804214	3757.5051	535.67932	-291.68668	3670.0234	618.88519	-237.36264	3646.2268	697.09784	-240.40617	3633.9556	826.48895	-255.87698	3742.8494	694.78973	-322.58273	3731.3137	840.94177	-353.69174	3745.7244	787.42841	-358.26111	3726.9099	764.58679	-350.91208	3772.9658	763.84003	-350.87741	3775.0957	468.61127	-292.9007	3721.6421	456.186	-247.13869	3820.3877	202.67056	-268.79901	3773.3835	213.21623	-222.98212	3836.1101	102.1332	-249.37962	3741.8381	394.55704	-189.39168	3751.1711	367.51843	-181.13098	3727.8269	361.71793	-209.87196	3911.4839	67.241188	-212.78891	3692.1609	73.058678	-213.3159	3749.6697	118.8808	-209.87184
257	2.56	3725.1704	105.48454	-201.23082	3725.6257	109.47483	-239.02103	3620.1221	1453.6631	-162.22412	3610.6128	1424.8949	-153.66371	3610.4014	1427.8119	-191.74446	3659.7769	1075.1309	-47.798889	3652.7598	1080.2903	-294.80408																3573.1199	571.3761	-20.549486	3499.6333	670.54254	-66.590729	3520.4558	758.73993	-56.153591	3580.7139	883.11511	-46.138683	3622.0439	711.29279	2.1241539	3672.8467	851.98175	24.657682	3656.4861	807.57959	31.741678	3649.8232	778.54413	29.256937	3618.3284	798.37988	32.395947	3577.3616	500.41504	-11.674853	3521.2139	475.27823	-63.174637	3646.012	250.9411	-70.574326	3737.7129	162.76457	-41.19529	3543.2188	419.41141	-89.652176	3551.1509	393.30508	-79.517128	3561.5862	397.22403	-116.77595	3817.3398	153.90323	-84.716278	3610.8616	82.943581	-68.99614	3650.4375	147.73302	-64.155701	3634.8711	123.34377	-53.404385	3626.4111	127.22707	-90.897957	3755.5161	535.91309	-291.63202	3665.1072	617.90381	-237.10352	3639.7437	696.19269	-240.26967	3626.1362	824.62512	-256.0376	3737.8967	694.86505	-322.77002	3723.553	840.66888	-353.79352	3739.2361	787.08594	-358.3923	3726.6343	761.69678	-353.53482	3766.481	764.1615	-351.03711	3774.4871	469.18283	-293.52353	3720.4041	456.17429	-247.3719	3820.3118	203.08823	-268.81131	3773.7224	212.97362	-222.98547	3836.437	101.97311	-249.51357	3741.0139	394.92871	-189.55939	3749.2517	367.68494	-181.92761	3726.7224	361.784	-210.47108	3911.3928	67.348976	-212.77011	3692.0906	72.892799	-213.32544	3749.4836	118.87469	-209.87352
258	2.57	3725.0801	105.29057	-201.27734	3725.3625	109.31413	-239.39517	3608.9187	1453.3198	-162.19685	3599.4705	1424.3577	-153.70711	3599.061	1427.8694	-191.83937	3649.2544	1074.8398	-48.126411	3642.0786	1079.5273	-295.24881																3557.157	573.25269	-21.000767	3485.5232	673.8595	-67.99147	3507.2913	761.70209	-57.609219	3568.9272	885.11395	-46.98489	3607.1626	713.17175	1.8270603	3659.856	853.19305	25.105444	3642.7207	809.0246	32.046429	3635.6958	780.27075	29.405947	3603.8767	802.05554	33.125473	3559.3311	501.42557	-12.864427	3502.738	478.41095	-64.451614	3614.6702	247.90833	-71.72718	3701.1689	154.43719	-42.213768	3521.6653	422.00891	-90.837997	3526.6497	396.27393	-80.76693	3538.5491	398.99127	-118.07744	3780.2266	141.29095	-85.779305	3570.2275	82.508904	-69.814728	3613.1853	144.83379	-65.269119	3596.2825	121.45968	-54.468102	3588.1563	126.06799	-91.916939	3753.4795	535.83398	-291.90219	3661.7275	616.41101	-237.32928	3634.8982	694.29547	-240.12106	3618.0911	822.77441	-256.42584	3732.6218	694.51147	-322.74167	3715.5171	839.92255	-353.81	3732.5991	787.39893	-358.60461	3720.6968	761.26563	-353.91275	3759.2856	763.34973	-350.32114	3773.501	469.69998	-293.61307	3719.3059	456.07706	-247.65488	3820.0906	203.61992	-268.70795	3773.6294	213.20174	-223.12006	3836.3535	102.24084	-249.63049	3738.9282	394.43079	-190.13632	3747.0303	367.55219	-182.55597	3725.6902	361.66324	-210.69028	3911.4282	67.791367	-212.67256	3691.9368	72.699654	-213.34894	3749.2383	118.85933	-209.8367
259	2.58	3724.8276	105.16328	-201.31828	3725.333	109.20459	-239.29741	3597.5823	1452.7675	-162.46928	3588.3042	1423.5751	-153.81133	3587.5444	1426.9695	-191.73262	3638.6367	1074.2729	-48.508846	3631.4954	1078.4886	-295.44299																3541.7849	574.51465	-21.915655	3471.8076	676.50806	-69.40464	3494.3787	764.1106	-59.053219	3557.064	886.79657	-47.750988	3592.563	714.58008	1.567404	3647.0818	853.88287	25.301527	3628.5789	810.3974	32.832108	3621.7517	781.22949	29.561539	3589.9885	802.97882	32.820137	3541.3723	501.73782	-13.920122	3484.9424	481.74405	-65.606865	3582.2168	245.48853	-72.678726	3664.2468	147.20773	-43.137569	3500.439	424.57809	-91.896965	3504.0828	398.22729	-82.304649	3515.9709	400.44974	-119.19175	3742.3206	129.25371	-86.680565	3529.5564	82.471985	-70.63459	3575.7847	142.40436	-66.216606	3557.4644	120.14436	-55.419075	3549.3474	125.72224	-92.552658	3751.417	535.9411	-291.39542	3658.3049	615.16309	-237.645	3628.9275	692.4491	-239.83705	3610.1152	820.94684	-256.3779	3727.3564	694.48993	-322.46436	3707.6255	839.49719	-353.8909	3725.6731	786.68628	-358.52786	3713.4807	760.94672	-353.78998	3753.217	764.58093	-351.16849	3772.6165	470.43542	-293.14313	3717.9785	456.078	-247.65863	3820.0732	204.37038	-268.36304	3772.6196	213.52962	-223.48729	3835.5027	102.33718	-248.95726	3737.394	394.44821	-190.3732	3746.2598	367.69058	-182.40585	3724.4302	361.71533	-211.20834	3911.2046	67.954399	-212.5685	3691.7388	72.538017	-213.35602	3749.019	118.71942	-209.75888
260	2.59	3724.5955	105.10595	-201.33934	3725.0449	109.11669	-239.30716	3586.2241	1451.8071	-162.57404	3576.895	1422.5245	-153.83461	3576.0056	1426.0437	-191.55508	3627.7556	1073.7732	-48.600399	3620.842	1077.1569	-295.75162																3527.1101	575.71368	-22.607317	3458.5627	678.55902	-70.691177	3481.7561	765.9187	-60.145248	3545.4377	887.63696	-48.579617	3578.939	715.47974	1.5228372	3634.6284	854.30707	25.373865	3616.166	810.34821	32.475994	3608.4666	781.81555	29.697781	3577.1753	803.3576	32.710682	3524.0334	501.94485	-14.595255	3467.0017	484.41714	-67.140327	3551.3176	243.039	-73.717026	3626.7991	140.42381	-43.921814	3479.6089	427.15152	-93.220863	3480.7395	400.27335	-83.378113	3494.0261	402.23859	-120.3931	3703.9033	117.98369	-87.382141	3488.7629	83.512321	-71.86499	3538.2881	140.96356	-67.430458	3518.8713	119.58411	-56.582443	3510.9067	125.57417	-93.539093	3749.3696	536.40222	-291.33817	3655.0586	613.7652	-237.92517	3623.9048	690.35095	-239.97118	3601.3357	818.86127	-256.3111	3721.9749	694.36212	-322.51181	3699.6194	839.12982	-353.7861	3715.2471	787.21552	-358.41718	3706.989	760.23956	-352.94073	3746.4919	764.98993	-351.26556	3771.2527	470.88821	-292.97226	3716.7759	456.08832	-247.76843	3819.5896	204.85616	-268.20081	3772.4756	213.83284	-223.2122	3835.0049	102.36095	-248.70668	3736.0229	394.56546	-190.4142	3745.1211	367.85114	-182.43164	3722.6985	362.20004	-210.4529	3911.1016	68.416611	-212.43964	3691.5288	72.408714	-213.38281	3748.676	118.75393	-209.71812
261	2.6	3724.249	104.96684	-201.34831	3724.6133	108.99565	-239.33044	3574.7632	1450.5961	-162.64032	3565.3647	1421.552	-153.9617	3564.4424	1424.8575	-191.76735	3616.8181	1072.7834	-49.15345	3610.1707	1075.61	-296.20996																3512.947	575.77991	-23.51976	3445.696	679.9234	-71.759048	3469.5349	766.9259	-61.215816	3533.8811	888.01147	-49.249657	3565.6831	715.5755	1.3311101	3622.4277	854.28455	25.671944	3603.6638	810.31531	32.363274	3595.5642	781.38007	29.319864	3564.47	804.14258	32.382042	3507.0581	501.68735	-15.256935	3450.2566	487.13553	-68.123863	3519.9153	241.4407	-74.660278	3589.0166	134.17618	-44.724907	3459.4634	428.98251	-94.603386	3459.2964	402.5314	-84.612656	3472.6797	403.57425	-121.62543	3664.8081	107.19545	-87.850922	3447.4092	86.081345	-73.335556	3500.8232	139.98961	-68.560493	3480.0303	119.93253	-57.861767	3472.6006	126.52222	-94.807152	3747.4441	536.87115	-291.18384	3651.3862	612.18286	-237.52609	3618.0183	688.7168	-239.50357	3592.2559	817.04974	-256.09525	3716.3542	693.72931	-322.09534	3690.989	837.60303	-353.86646	3707.7629	786.99591	-358.3494	3699.9312	759.66248	-352.62363	3738.738	763.6806	-350.45615	3770.0779	471.6236	-292.85358	3715.2793	456.11475	-247.98975	3818.8181	205.34868	-268.28452	3771.9807	214.20926	-223.18219	3835.5291	102.82492	-248.77396	3734.7012	394.83353	-190.32468	3743.6672	368.26178	-182.65276	3721.5227	362.58521	-210.84882	3910.9551	68.764618	-212.32001	3691.2588	72.195259	-213.39174	3748.2166	118.6862	-209.81891
